<svg width="333" height="67" viewBox="0 0 333 67" fill="none" xmlns="http://www.w3.org/2000/svg">
<mask id="path-1-outside-1_4_486" maskUnits="userSpaceOnUse" x="0" y="0" width="333" height="67" fill="black">
<rect fill="white" width="333" height="67"/>
<path d="M119.645 29.8625L120.136 30.6184C114.207 33.5409 108.096 35.6531 101.805 36.955C95.5909 38.2434 89.712 38.4707 84.1682 37.6371C78.67 36.8355 73.6874 34.8612 69.2203 31.7141C61.8359 26.5117 60.1776 21.0085 64.2454 15.2045C66.3274 12.2339 69.6314 9.85121 74.1576 8.05647C78.7158 6.21602 84.1395 5.32664 90.4286 5.38831C96.7177 5.44998 103.427 6.66096 110.556 9.02124C117.731 11.4136 124.965 15.1789 132.258 20.3171C135.723 22.7577 140.097 26.5224 145.383 31.6111C150.408 36.585 154.835 40.4207 158.664 43.1183C163.131 46.2654 166.374 49.0485 172 49.6672L173.5 50.5C165.431 50.5495 158.672 47.5272 152.29 43.0313C149.327 40.9439 145.165 37.0217 139.804 31.2647C136.428 27.7261 133.795 25.1199 131.904 23.4463C130.058 21.8048 128.087 20.2455 125.99 18.7683C119.426 14.1439 112.821 10.89 106.175 9.00648C99.5284 7.12296 93.4346 6.34551 87.8932 6.67414C82.3519 7.00277 77.5738 8.03975 73.5589 9.78508C69.5896 11.5625 66.8362 13.5481 65.2987 15.7417C61.6473 20.9517 63.2403 25.9651 70.0777 30.7822C73.4508 33.1585 77.6604 34.8272 82.7065 35.7881C87.7526 36.7489 93.4553 36.7729 99.8146 35.8601C106.22 34.9793 112.83 32.9801 119.645 29.8625ZM98.6562 55.7288C102.642 57.7174 105.675 58.4893 107.757 58.0446C109.839 57.5999 111.169 56.9663 111.745 56.1436C112.93 54.4527 112.725 53.0452 111.13 51.9213C109.808 50.99 108.11 50.8862 106.037 51.6101C104.041 52.3203 101.581 53.6932 98.6562 55.7288ZM61.0193 42.8325L60.7199 41.8023C68.2422 41.3675 76.7544 43.7462 86.2566 48.9387C99.7661 43.8472 110.153 40.3448 117.418 38.4314C124.728 36.5502 132.559 35.8207 140.911 36.243L141.306 37.136C130.058 38.2231 121.857 39.5788 116.701 41.2031C111.545 42.8274 103.203 46.4731 91.6729 52.1402L96.3445 54.5097C99.922 52.3198 102.971 50.8839 105.492 50.202C108.058 49.5523 110.207 49.8376 111.939 51.0579C114.081 52.5672 114.336 54.4873 112.702 56.818C111.357 58.7375 109.281 59.562 106.475 59.2915C103.714 59.0532 100.722 58.1738 97.4976 56.6533C95.12 59.0743 92.6253 61.8565 90.0136 65L84.9226 63.6661C89.7727 59.3689 93.171 56.6089 95.1175 55.3861L90.3572 52.8516C75.2819 60.663 61.0744 64.2729 47.7349 63.6814C34.4408 63.1221 22.2783 58.9567 11.2473 51.1853C7.23606 48.3593 4.46413 45.4166 2.93154 42.3571C1.47656 39.2841 1.72599 36.3536 3.67983 33.5659C4.73682 32.0577 6.08272 31.0603 7.71751 30.5737C9.42992 30.0734 10.9927 30.321 12.4057 31.3165C13.4997 32.0873 14.128 32.9395 14.2906 33.8733C14.4988 34.8392 14.2666 35.802 13.594 36.7617C12.3448 38.5441 10.6491 38.6806 8.50667 37.1712C7.13919 36.2078 6.93897 34.599 7.90602 32.3449C6.38087 32.7723 5.31401 33.4201 4.70544 34.2884C3.26408 36.345 3.23209 38.9166 4.60945 42.0032C6.01885 45.0441 8.63802 47.9134 12.467 50.6109C17.1164 53.8865 22.1736 56.2888 27.6386 57.8178C33.1811 59.3333 38.9534 59.9866 44.9555 59.7778C50.9576 59.569 57.2097 58.6147 63.7119 56.915C70.2918 55.2018 77.2997 52.732 84.7357 49.5057C75.7757 44.8999 67.8702 42.6755 61.0193 42.8325Z"/>
<path d="M276.678 26.4772L277.17 27.2331C271.24 30.1556 265.13 32.2678 258.838 33.5697C252.624 34.8581 246.745 35.0854 241.202 34.2518C235.703 33.4502 230.721 31.4759 226.254 28.3288C218.869 23.1264 217.211 17.6232 221.279 11.8191C223.361 8.84856 226.665 6.4659 231.191 4.67116C235.749 2.83072 241.173 1.94133 247.462 2.003C253.751 2.06467 260.46 3.27565 267.59 5.63593C274.765 8.02833 281.999 11.7936 289.292 16.9317C292.756 19.3724 297.131 23.1371 302.416 28.2258C307.441 33.1997 311.868 37.0354 315.697 39.733C320.164 42.8801 325.211 44.763 330.837 45.3817L331 46.3155C322.931 46.365 315.705 44.1418 309.324 39.646C306.361 37.5586 302.199 33.6364 296.837 27.8794C293.461 24.3408 290.828 21.7346 288.937 20.061C287.092 18.4195 285.12 16.8602 283.024 15.3829C276.46 10.7586 269.855 7.50469 263.208 5.62117C256.562 3.73765 250.468 2.9602 244.927 3.28883C239.385 3.61746 234.607 4.65444 230.592 6.39977C226.623 8.17721 223.87 10.1628 222.332 12.3564C218.681 17.5664 220.274 22.5798 227.111 27.3968C230.484 29.7732 234.694 31.4419 239.74 32.4028C244.786 33.3636 250.489 33.3876 256.848 32.4748C263.253 31.594 269.863 29.5948 276.678 26.4772ZM255.69 52.3435C259.675 54.332 262.709 55.104 264.791 54.6593C266.873 54.2146 268.202 53.5809 268.778 52.7583C269.964 51.0674 269.758 49.6599 268.163 48.536C266.841 47.6047 265.144 47.5009 263.07 48.2248C261.074 48.935 258.614 50.3079 255.69 52.3435ZM218.053 39.4471L217.753 38.417C225.276 37.9821 233.788 40.3609 243.29 45.5534C256.799 40.4619 267.187 36.9595 274.451 35.0461C281.762 33.1649 289.593 32.4354 297.944 32.8577L298.34 33.7507C287.092 34.8378 278.89 36.1935 273.734 37.8178C268.579 39.4421 260.236 43.0878 248.706 48.7548L253.378 51.1244C256.955 48.9344 260.004 47.4985 262.525 46.8167C265.091 46.167 267.24 46.4523 268.972 47.6726C271.115 49.1819 271.369 51.1019 269.736 53.4327C268.39 55.3522 266.315 56.1767 263.508 55.9062C260.747 55.6678 257.755 54.7885 254.531 53.268C252.153 55.689 249.659 58.4712 247.047 61.6147L241.956 60.2808C246.806 55.9836 250.204 53.2236 252.151 52.0008L247.391 49.4663C232.315 57.2776 218.108 60.8876 204.768 60.2961C191.474 59.7368 179.312 55.5714 168.281 47.8C164.269 44.974 161.497 42.0313 159.965 38.9718C158.51 35.8987 158.759 32.9683 160.713 30.1806C161.77 28.6724 163.116 27.675 164.751 27.1883C166.463 26.6881 168.026 26.9357 169.439 27.9312C170.533 28.702 171.161 29.5542 171.324 30.488C171.532 31.4539 171.3 32.4167 170.627 33.3764C169.378 35.1587 167.682 35.2952 165.54 33.7859C164.173 32.8225 163.972 31.2137 164.939 28.9596C163.414 29.3869 162.347 30.0348 161.739 30.9031C160.297 32.9597 160.265 35.5313 161.643 38.6179C163.052 41.6588 165.671 44.5281 169.5 47.2256C174.15 50.5012 179.207 52.9035 184.672 54.4325C190.214 55.948 195.987 56.6013 201.989 56.3925C207.991 56.1836 214.243 55.2294 220.745 53.5297C227.325 51.8165 234.333 49.3467 241.769 46.1204C232.809 41.5146 224.904 39.2902 218.053 39.4471Z"/>
</mask>
<path d="M119.645 29.8625L120.136 30.6184C114.207 33.5409 108.096 35.6531 101.805 36.955C95.5909 38.2434 89.712 38.4707 84.1682 37.6371C78.67 36.8355 73.6874 34.8612 69.2203 31.7141C61.8359 26.5117 60.1776 21.0085 64.2454 15.2045C66.3274 12.2339 69.6314 9.85121 74.1576 8.05647C78.7158 6.21602 84.1395 5.32664 90.4286 5.38831C96.7177 5.44998 103.427 6.66096 110.556 9.02124C117.731 11.4136 124.965 15.1789 132.258 20.3171C135.723 22.7577 140.097 26.5224 145.383 31.6111C150.408 36.585 154.835 40.4207 158.664 43.1183C163.131 46.2654 166.374 49.0485 172 49.6672L173.5 50.5C165.431 50.5495 158.672 47.5272 152.29 43.0313C149.327 40.9439 145.165 37.0217 139.804 31.2647C136.428 27.7261 133.795 25.1199 131.904 23.4463C130.058 21.8048 128.087 20.2455 125.99 18.7683C119.426 14.1439 112.821 10.89 106.175 9.00648C99.5284 7.12296 93.4346 6.34551 87.8932 6.67414C82.3519 7.00277 77.5738 8.03975 73.5589 9.78508C69.5896 11.5625 66.8362 13.5481 65.2987 15.7417C61.6473 20.9517 63.2403 25.9651 70.0777 30.7822C73.4508 33.1585 77.6604 34.8272 82.7065 35.7881C87.7526 36.7489 93.4553 36.7729 99.8146 35.8601C106.22 34.9793 112.83 32.9801 119.645 29.8625ZM98.6562 55.7288C102.642 57.7174 105.675 58.4893 107.757 58.0446C109.839 57.5999 111.169 56.9663 111.745 56.1436C112.93 54.4527 112.725 53.0452 111.13 51.9213C109.808 50.99 108.11 50.8862 106.037 51.6101C104.041 52.3203 101.581 53.6932 98.6562 55.7288ZM61.0193 42.8325L60.7199 41.8023C68.2422 41.3675 76.7544 43.7462 86.2566 48.9387C99.7661 43.8472 110.153 40.3448 117.418 38.4314C124.728 36.5502 132.559 35.8207 140.911 36.243L141.306 37.136C130.058 38.2231 121.857 39.5788 116.701 41.2031C111.545 42.8274 103.203 46.4731 91.6729 52.1402L96.3445 54.5097C99.922 52.3198 102.971 50.8839 105.492 50.202C108.058 49.5523 110.207 49.8376 111.939 51.0579C114.081 52.5672 114.336 54.4873 112.702 56.818C111.357 58.7375 109.281 59.562 106.475 59.2915C103.714 59.0532 100.722 58.1738 97.4976 56.6533C95.12 59.0743 92.6253 61.8565 90.0136 65L84.9226 63.6661C89.7727 59.3689 93.171 56.6089 95.1175 55.3861L90.3572 52.8516C75.2819 60.663 61.0744 64.2729 47.7349 63.6814C34.4408 63.1221 22.2783 58.9567 11.2473 51.1853C7.23606 48.3593 4.46413 45.4166 2.93154 42.3571C1.47656 39.2841 1.72599 36.3536 3.67983 33.5659C4.73682 32.0577 6.08272 31.0603 7.71751 30.5737C9.42992 30.0734 10.9927 30.321 12.4057 31.3165C13.4997 32.0873 14.128 32.9395 14.2906 33.8733C14.4988 34.8392 14.2666 35.802 13.594 36.7617C12.3448 38.5441 10.6491 38.6806 8.50667 37.1712C7.13919 36.2078 6.93897 34.599 7.90602 32.3449C6.38087 32.7723 5.31401 33.4201 4.70544 34.2884C3.26408 36.345 3.23209 38.9166 4.60945 42.0032C6.01885 45.0441 8.63802 47.9134 12.467 50.6109C17.1164 53.8865 22.1736 56.2888 27.6386 57.8178C33.1811 59.3333 38.9534 59.9866 44.9555 59.7778C50.9576 59.569 57.2097 58.6147 63.7119 56.915C70.2918 55.2018 77.2997 52.732 84.7357 49.5057C75.7757 44.8999 67.8702 42.6755 61.0193 42.8325Z" fill="black"/>
<path d="M276.678 26.4772L277.17 27.2331C271.24 30.1556 265.13 32.2678 258.838 33.5697C252.624 34.8581 246.745 35.0854 241.202 34.2518C235.703 33.4502 230.721 31.4759 226.254 28.3288C218.869 23.1264 217.211 17.6232 221.279 11.8191C223.361 8.84856 226.665 6.4659 231.191 4.67116C235.749 2.83072 241.173 1.94133 247.462 2.003C253.751 2.06467 260.46 3.27565 267.59 5.63593C274.765 8.02833 281.999 11.7936 289.292 16.9317C292.756 19.3724 297.131 23.1371 302.416 28.2258C307.441 33.1997 311.868 37.0354 315.697 39.733C320.164 42.8801 325.211 44.763 330.837 45.3817L331 46.3155C322.931 46.365 315.705 44.1418 309.324 39.646C306.361 37.5586 302.199 33.6364 296.837 27.8794C293.461 24.3408 290.828 21.7346 288.937 20.061C287.092 18.4195 285.12 16.8602 283.024 15.3829C276.46 10.7586 269.855 7.50469 263.208 5.62117C256.562 3.73765 250.468 2.9602 244.927 3.28883C239.385 3.61746 234.607 4.65444 230.592 6.39977C226.623 8.17721 223.87 10.1628 222.332 12.3564C218.681 17.5664 220.274 22.5798 227.111 27.3968C230.484 29.7732 234.694 31.4419 239.74 32.4028C244.786 33.3636 250.489 33.3876 256.848 32.4748C263.253 31.594 269.863 29.5948 276.678 26.4772ZM255.69 52.3435C259.675 54.332 262.709 55.104 264.791 54.6593C266.873 54.2146 268.202 53.5809 268.778 52.7583C269.964 51.0674 269.758 49.6599 268.163 48.536C266.841 47.6047 265.144 47.5009 263.07 48.2248C261.074 48.935 258.614 50.3079 255.69 52.3435ZM218.053 39.4471L217.753 38.417C225.276 37.9821 233.788 40.3609 243.29 45.5534C256.799 40.4619 267.187 36.9595 274.451 35.0461C281.762 33.1649 289.593 32.4354 297.944 32.8577L298.34 33.7507C287.092 34.8378 278.89 36.1935 273.734 37.8178C268.579 39.4421 260.236 43.0878 248.706 48.7548L253.378 51.1244C256.955 48.9344 260.004 47.4985 262.525 46.8167C265.091 46.167 267.24 46.4523 268.972 47.6726C271.115 49.1819 271.369 51.1019 269.736 53.4327C268.39 55.3522 266.315 56.1767 263.508 55.9062C260.747 55.6678 257.755 54.7885 254.531 53.268C252.153 55.689 249.659 58.4712 247.047 61.6147L241.956 60.2808C246.806 55.9836 250.204 53.2236 252.151 52.0008L247.391 49.4663C232.315 57.2776 218.108 60.8876 204.768 60.2961C191.474 59.7368 179.312 55.5714 168.281 47.8C164.269 44.974 161.497 42.0313 159.965 38.9718C158.51 35.8987 158.759 32.9683 160.713 30.1806C161.77 28.6724 163.116 27.675 164.751 27.1883C166.463 26.6881 168.026 26.9357 169.439 27.9312C170.533 28.702 171.161 29.5542 171.324 30.488C171.532 31.4539 171.3 32.4167 170.627 33.3764C169.378 35.1587 167.682 35.2952 165.54 33.7859C164.173 32.8225 163.972 31.2137 164.939 28.9596C163.414 29.3869 162.347 30.0348 161.739 30.9031C160.297 32.9597 160.265 35.5313 161.643 38.6179C163.052 41.6588 165.671 44.5281 169.5 47.2256C174.15 50.5012 179.207 52.9035 184.672 54.4325C190.214 55.948 195.987 56.6013 201.989 56.3925C207.991 56.1836 214.243 55.2294 220.745 53.5297C227.325 51.8165 234.333 49.3467 241.769 46.1204C232.809 41.5146 224.904 39.2902 218.053 39.4471Z" fill="black"/>
<path d="M119.645 29.8625L120.136 30.6184C114.207 33.5409 108.096 35.6531 101.805 36.955C95.5909 38.2434 89.712 38.4707 84.1682 37.6371C78.67 36.8355 73.6874 34.8612 69.2203 31.7141C61.8359 26.5117 60.1776 21.0085 64.2454 15.2045C66.3274 12.2339 69.6314 9.85121 74.1576 8.05647C78.7158 6.21602 84.1395 5.32664 90.4286 5.38831C96.7177 5.44998 103.427 6.66096 110.556 9.02124C117.731 11.4136 124.965 15.1789 132.258 20.3171C135.723 22.7577 140.097 26.5224 145.383 31.6111C150.408 36.585 154.835 40.4207 158.664 43.1183C163.131 46.2654 166.374 49.0485 172 49.6672L173.5 50.5C165.431 50.5495 158.672 47.5272 152.29 43.0313C149.327 40.9439 145.165 37.0217 139.804 31.2647C136.428 27.7261 133.795 25.1199 131.904 23.4463C130.058 21.8048 128.087 20.2455 125.99 18.7683C119.426 14.1439 112.821 10.89 106.175 9.00648C99.5284 7.12296 93.4346 6.34551 87.8932 6.67414C82.3519 7.00277 77.5738 8.03975 73.5589 9.78508C69.5896 11.5625 66.8362 13.5481 65.2987 15.7417C61.6473 20.9517 63.2403 25.9651 70.0777 30.7822C73.4508 33.1585 77.6604 34.8272 82.7065 35.7881C87.7526 36.7489 93.4553 36.7729 99.8146 35.8601C106.22 34.9793 112.83 32.9801 119.645 29.8625ZM98.6562 55.7288C102.642 57.7174 105.675 58.4893 107.757 58.0446C109.839 57.5999 111.169 56.9663 111.745 56.1436C112.93 54.4527 112.725 53.0452 111.13 51.9213C109.808 50.99 108.11 50.8862 106.037 51.6101C104.041 52.3203 101.581 53.6932 98.6562 55.7288ZM61.0193 42.8325L60.7199 41.8023C68.2422 41.3675 76.7544 43.7462 86.2566 48.9387C99.7661 43.8472 110.153 40.3448 117.418 38.4314C124.728 36.5502 132.559 35.8207 140.911 36.243L141.306 37.136C130.058 38.2231 121.857 39.5788 116.701 41.2031C111.545 42.8274 103.203 46.4731 91.6729 52.1402L96.3445 54.5097C99.922 52.3198 102.971 50.8839 105.492 50.202C108.058 49.5523 110.207 49.8376 111.939 51.0579C114.081 52.5672 114.336 54.4873 112.702 56.818C111.357 58.7375 109.281 59.562 106.475 59.2915C103.714 59.0532 100.722 58.1738 97.4976 56.6533C95.12 59.0743 92.6253 61.8565 90.0136 65L84.9226 63.6661C89.7727 59.3689 93.171 56.6089 95.1175 55.3861L90.3572 52.8516C75.2819 60.663 61.0744 64.2729 47.7349 63.6814C34.4408 63.1221 22.2783 58.9567 11.2473 51.1853C7.23606 48.3593 4.46413 45.4166 2.93154 42.3571C1.47656 39.2841 1.72599 36.3536 3.67983 33.5659C4.73682 32.0577 6.08272 31.0603 7.71751 30.5737C9.42992 30.0734 10.9927 30.321 12.4057 31.3165C13.4997 32.0873 14.128 32.9395 14.2906 33.8733C14.4988 34.8392 14.2666 35.802 13.594 36.7617C12.3448 38.5441 10.6491 38.6806 8.50667 37.1712C7.13919 36.2078 6.93897 34.599 7.90602 32.3449C6.38087 32.7723 5.31401 33.4201 4.70544 34.2884C3.26408 36.345 3.23209 38.9166 4.60945 42.0032C6.01885 45.0441 8.63802 47.9134 12.467 50.6109C17.1164 53.8865 22.1736 56.2888 27.6386 57.8178C33.1811 59.3333 38.9534 59.9866 44.9555 59.7778C50.9576 59.569 57.2097 58.6147 63.7119 56.915C70.2918 55.2018 77.2997 52.732 84.7357 49.5057C75.7757 44.8999 67.8702 42.6755 61.0193 42.8325Z" stroke="black" stroke-width="2.08314" mask="url(#path-1-outside-1_4_486)"/>
<path d="M276.678 26.4772L277.17 27.2331C271.24 30.1556 265.13 32.2678 258.838 33.5697C252.624 34.8581 246.745 35.0854 241.202 34.2518C235.703 33.4502 230.721 31.4759 226.254 28.3288C218.869 23.1264 217.211 17.6232 221.279 11.8191C223.361 8.84856 226.665 6.4659 231.191 4.67116C235.749 2.83072 241.173 1.94133 247.462 2.003C253.751 2.06467 260.46 3.27565 267.59 5.63593C274.765 8.02833 281.999 11.7936 289.292 16.9317C292.756 19.3724 297.131 23.1371 302.416 28.2258C307.441 33.1997 311.868 37.0354 315.697 39.733C320.164 42.8801 325.211 44.763 330.837 45.3817L331 46.3155C322.931 46.365 315.705 44.1418 309.324 39.646C306.361 37.5586 302.199 33.6364 296.837 27.8794C293.461 24.3408 290.828 21.7346 288.937 20.061C287.092 18.4195 285.12 16.8602 283.024 15.3829C276.46 10.7586 269.855 7.50469 263.208 5.62117C256.562 3.73765 250.468 2.9602 244.927 3.28883C239.385 3.61746 234.607 4.65444 230.592 6.39977C226.623 8.17721 223.87 10.1628 222.332 12.3564C218.681 17.5664 220.274 22.5798 227.111 27.3968C230.484 29.7732 234.694 31.4419 239.74 32.4028C244.786 33.3636 250.489 33.3876 256.848 32.4748C263.253 31.594 269.863 29.5948 276.678 26.4772ZM255.69 52.3435C259.675 54.332 262.709 55.104 264.791 54.6593C266.873 54.2146 268.202 53.5809 268.778 52.7583C269.964 51.0674 269.758 49.6599 268.163 48.536C266.841 47.6047 265.144 47.5009 263.07 48.2248C261.074 48.935 258.614 50.3079 255.69 52.3435ZM218.053 39.4471L217.753 38.417C225.276 37.9821 233.788 40.3609 243.29 45.5534C256.799 40.4619 267.187 36.9595 274.451 35.0461C281.762 33.1649 289.593 32.4354 297.944 32.8577L298.34 33.7507C287.092 34.8378 278.89 36.1935 273.734 37.8178C268.579 39.4421 260.236 43.0878 248.706 48.7548L253.378 51.1244C256.955 48.9344 260.004 47.4985 262.525 46.8167C265.091 46.167 267.24 46.4523 268.972 47.6726C271.115 49.1819 271.369 51.1019 269.736 53.4327C268.39 55.3522 266.315 56.1767 263.508 55.9062C260.747 55.6678 257.755 54.7885 254.531 53.268C252.153 55.689 249.659 58.4712 247.047 61.6147L241.956 60.2808C246.806 55.9836 250.204 53.2236 252.151 52.0008L247.391 49.4663C232.315 57.2776 218.108 60.8876 204.768 60.2961C191.474 59.7368 179.312 55.5714 168.281 47.8C164.269 44.974 161.497 42.0313 159.965 38.9718C158.51 35.8987 158.759 32.9683 160.713 30.1806C161.77 28.6724 163.116 27.675 164.751 27.1883C166.463 26.6881 168.026 26.9357 169.439 27.9312C170.533 28.702 171.161 29.5542 171.324 30.488C171.532 31.4539 171.3 32.4167 170.627 33.3764C169.378 35.1587 167.682 35.2952 165.54 33.7859C164.173 32.8225 163.972 31.2137 164.939 28.9596C163.414 29.3869 162.347 30.0348 161.739 30.9031C160.297 32.9597 160.265 35.5313 161.643 38.6179C163.052 41.6588 165.671 44.5281 169.5 47.2256C174.15 50.5012 179.207 52.9035 184.672 54.4325C190.214 55.948 195.987 56.6013 201.989 56.3925C207.991 56.1836 214.243 55.2294 220.745 53.5297C227.325 51.8165 234.333 49.3467 241.769 46.1204C232.809 41.5146 224.904 39.2902 218.053 39.4471Z" stroke="black" stroke-width="2.08314" mask="url(#path-1-outside-1_4_486)"/>
</svg>
