<svg width="334" height="67" viewBox="0 0 334 67" fill="none" xmlns="http://www.w3.org/2000/svg">
<path fill-rule="evenodd" clip-rule="evenodd" d="M240.921 0.214161C228.704 1.72786 219.81 7.49644 217.864 15.1689C216.691 19.7915 218.642 24.2256 223.671 28.3683C226.39 30.6085 230.908 33.132 234.321 34.3173C246.395 38.5106 262.26 36.6216 277.962 29.1214C280.562 27.8796 280.586 27.8631 280.336 27.4817C280.197 27.2699 279.601 26.3455 279.011 25.4277C278.421 24.51 277.852 23.7954 277.747 23.8398C277.642 23.8842 276.519 24.3771 275.251 24.9352C266.079 28.9714 257.335 30.9249 248.435 30.9252C239.666 30.9257 232.277 28.6238 226.944 24.2302C222.675 20.7125 221.787 17.3264 224.178 13.6768C226.273 10.4793 231.546 7.59174 237.855 6.18763C245.051 4.58594 252.291 4.74267 260.335 6.67399C267.551 8.4067 274.014 11.2706 280.631 15.6672C285.409 18.8425 288.369 21.3595 293.69 26.7716L297.355 30.5L292.58 30.6119C283.637 30.8214 278.147 31.7152 269.188 34.4198C263.278 36.2037 254.18 39.3191 245.709 42.459L243.922 43.1215L241.183 41.8019C233.31 38.0089 226.421 36.1982 219.877 36.202C218.723 36.2027 217.275 36.2507 216.659 36.3085L215.539 36.414L216.242 38.8174L216.945 41.2209L220.094 41.3275C223.615 41.4464 226.018 41.8462 229.675 42.9212C231.848 43.5595 236.924 45.4814 237.073 45.7221C237.279 46.0551 227.219 49.5743 221.985 51C213.892 53.2043 207.242 54.1534 200.016 54.1353C195.305 54.1237 193.045 53.9023 188.778 53.0353C177.405 50.7245 165.969 43.4933 163.54 37.0765C163.102 35.9181 162.778 34.1255 162.935 33.7191C163.029 33.4755 163.137 33.5442 163.559 34.1162C164.094 34.8411 165.158 35.6018 166.454 36.1868C167.564 36.6878 169.337 36.6664 170.475 36.1385C171.453 35.6848 172.57 34.5127 173.146 33.3354C173.603 32.4028 173.761 30.5178 173.472 29.4473C172.798 26.9569 169.668 24.7991 166.729 24.7991C162.967 24.7991 159.719 27.2656 157.939 31.4735C157.524 32.4573 157.488 32.7311 157.488 34.9245C157.488 37.2697 157.497 37.3301 158.1 38.7866L158.713 40.2661L157.502 39.3293C155.188 37.5377 152.17 34.8678 148.368 31.2482C140.242 23.5112 136.598 20.4489 131.441 17.0235C128.615 15.1458 126.405 13.8166 123.499 12.2452C107.507 3.59774 88.7993 0.936551 75.3746 5.39921C68.7189 7.61182 63.8526 11.2893 61.5544 15.8428C58.7932 21.3141 60.3037 26.6702 65.9414 31.3995C71.3435 35.9309 77.8257 38.6471 85.5829 39.6295C87.7966 39.9098 94.2777 39.9063 96.6846 39.6235C104.63 38.6899 113.806 35.9091 121.231 32.1847L123.233 31.1806L121.942 29.2236C121.231 28.1473 120.628 27.2437 120.6 27.2156C120.573 27.1875 119.759 27.5192 118.791 27.9526C108.774 32.4381 99.0192 34.5629 89.7674 34.2746C85.387 34.1381 82.3105 33.6358 78.5629 32.4452C72.9635 30.6666 67.9444 27.0439 66.083 23.4377C65.6574 22.6134 65.5999 22.3181 65.5999 20.9613C65.5999 19.5203 65.6417 19.3365 66.2501 18.1102C67.0989 16.3988 68.4122 15.0076 70.4631 13.6472C77.2879 9.12025 88.2061 7.38957 98.7177 9.1684C107.56 10.6649 115.457 13.8419 123.329 19.0702C128.011 22.1805 130.168 24.0025 135.626 29.4619L140.067 33.9034L135.113 34.012C124.585 34.2429 119.009 35.3518 104.883 40.0234C99.8863 41.6758 90.9593 44.8305 87.6326 46.1196L86.608 46.5166L83.7043 45.1239C77.5676 42.1806 72.4633 40.5576 67.171 39.8672C65.1281 39.6007 60.2418 39.5281 58.9192 39.7445L58.2164 39.8595L58.9259 42.242L59.6352 44.6244L60.691 44.5695C62.167 44.4927 65.9409 44.8338 68.0031 45.2303C71.206 45.8461 75.8172 47.3045 78.761 48.6329L79.9466 49.1679L77.8117 50.0117C74.8452 51.1838 67.6345 53.5799 64.6431 54.3875C52.3626 57.703 41.3869 58.4239 31.945 56.5348C24.3817 55.0216 16.8298 51.5328 11.4563 47.0693C7.79663 44.0295 5.56536 40.4354 5.56536 37.5802C5.56536 36.7472 5.72454 36.6982 6.14214 37.4024C6.82873 38.5604 9.0682 39.7881 10.709 39.906C12.9092 40.0639 14.6621 38.9799 15.7372 36.7964C16.174 35.9096 16.2401 35.5853 16.2401 34.3289C16.2401 32.5434 15.8325 31.5986 14.5015 30.2971C12.1618 28.0096 8.75206 27.552 5.57595 29.0991C3.55288 30.0844 1.43315 32.5567 0.609572 34.8913C-0.921436 39.2316 0.415548 43.4397 4.8014 48.0849C7.78109 51.241 13.6839 55.3054 19.4852 58.1957C26.2816 61.5818 33.1107 63.7022 40.6638 64.7717C55.6425 66.8926 70.5316 64.2326 87.2054 56.4572C90.0635 55.1244 90.5923 54.9297 90.9336 55.0847C91.1523 55.1839 91.3061 55.3342 91.2753 55.4184C91.2444 55.5028 90.0278 56.562 88.5718 57.7725C85.1024 60.6566 81.01 64.2896 81.1139 64.3933C81.1591 64.4382 83.3745 65.0432 86.0369 65.7375L90.8775 67L91.4753 66.2805C94.9155 62.1398 98.0075 58.8129 98.3046 58.9324C99.777 59.5241 103.333 60.5642 104.614 60.7777C106.587 61.1069 108.859 61.1203 110.029 60.8097C112.292 60.2092 114.19 58.6318 115.268 56.4553C115.709 55.5636 115.825 55.098 115.875 54.0203C115.931 52.8049 115.889 52.5923 115.399 51.6006C114.747 50.2815 113.724 49.3401 112.068 48.5359C110.088 47.5744 107.701 47.3995 105.273 48.0376C103.919 48.3935 104.462 48.0985 107.872 46.6267C111.894 44.8904 115.451 43.5329 117.949 42.7816C122.848 41.3077 130.385 40.0636 140.664 39.0323L144.678 38.6297L146.369 40.2319C152.964 46.4797 160.102 49.9931 168.428 51.0904C170.619 51.3792 170.654 51.3907 172.347 52.3898C180.812 57.3867 189.851 60.4277 199.93 61.671C203.784 62.1465 212.685 62.1029 216.497 61.59C226.269 60.2752 235.345 57.4845 245.214 52.7608C247.833 51.5071 247.892 51.4881 248.321 51.7682L248.758 52.0536L246.761 53.685C245.663 54.5822 243.314 56.5835 241.543 58.132C238.863 60.4743 238.375 60.9704 238.639 61.0818C238.91 61.1959 247.999 63.5989 248.16 63.5989C248.191 63.5989 249.233 62.4087 250.476 60.9539C251.718 59.4991 253.362 57.6639 254.129 56.8756L255.524 55.4424L256.798 55.9591C260.35 57.3999 265.208 58.0529 267.48 57.3947C268.964 56.9648 269.736 56.5227 270.85 55.464C271.536 54.8116 272.054 54.1009 272.523 53.1682C273.137 51.9457 273.201 51.6942 273.2 50.5183C273.197 48.4277 272.336 46.9465 270.398 45.6984C268.881 44.7218 267.479 44.3401 265.43 44.3464C264.486 44.3494 263.302 44.4636 262.783 44.6018C262.267 44.7393 261.822 44.8298 261.795 44.8031C261.721 44.7291 267.519 42.2347 270.127 41.2186C277.391 38.3882 283.933 37.0843 298.137 35.635L301.98 35.2429L303.859 36.9919C307.352 40.2436 310.075 42.1826 313.743 44.0283C317.395 45.8664 321.296 47.0838 325.476 47.6905C327.111 47.9277 334.01 48.2566 334 48.0968C333.979 47.7727 333.178 43.4895 333.129 43.441C333.094 43.4065 332.151 43.2523 331.034 43.0985C322.303 41.8974 317.214 38.8128 305.304 27.5028C297.077 19.6915 294.037 17.1433 288.744 13.6237C277.83 6.36733 267.384 2.2309 255.439 0.435558C252.371 -0.0254452 243.899 -0.154608 240.921 0.214161ZM267.054 49.7501C267.973 50.1165 268.146 50.464 267.739 51.1299C266.991 52.356 263.66 52.8575 261.334 52.0946L260.311 51.7593L262.044 50.8726C263.701 50.0248 265.163 49.5096 265.982 49.4856C266.191 49.4795 266.674 49.5985 267.054 49.7501ZM109.878 53.2137C111.874 54.1159 109.634 55.8541 106.505 55.8314C105.557 55.8245 104.698 55.7059 104.029 55.4896L103.004 55.1582L104.18 54.501C105.551 53.7347 107.904 52.8818 108.64 52.8839C108.922 52.8847 109.479 53.0331 109.878 53.2137Z" fill="white"/>
</svg>
